<svg width="128" height="128" viewBox="0 0 128 128" fill="none" xmlns="http://www.w3.org/2000/svg">
<rect width="128" height="128" rx="8" fill="#D66234"/>
<path d="M60.62 78.96C54.8333 75.9733 52.4067 73.1733 53.34 70.56C53.8067 69.2533 54.5067 67.9467 55.44 66.64C58.52 62.8133 60.06 58.8 60.06 54.6C60.06 50.4 58.24 46.9467 54.6 44.24C51.0533 41.5333 46.9 40.18 42.14 40.18C37.38 40.18 33.3667 41.4867 30.1 44.1C26.8333 46.8067 25.2 50.6333 25.2 55.58C25.2 63.8867 28.3733 71.2133 34.72 77.56C41.16 84 48.58 87.22 56.98 87.22C57.9133 87.22 58.8933 86.4733 59.92 84.98C61.04 83.4867 61.6 82.18 61.6 81.06C61.6 80.0333 61.2733 79.3333 60.62 78.96Z" fill="#F8DED3"/>
<path d="M100.62 78.96C94.8333 75.9733 92.4067 73.1733 93.34 70.56C93.8067 69.2533 94.5067 67.9467 95.44 66.64C98.52 62.8133 100.06 58.8 100.06 54.6C100.06 50.4 98.24 46.9467 94.6 44.24C91.0533 41.5333 86.9 40.18 82.14 40.18C77.38 40.18 73.3667 41.4867 70.1 44.1C66.8333 46.8067 65.2 50.6333 65.2 55.58C65.2 63.8867 68.3733 71.2133 74.72 77.56C81.16 84 88.58 87.22 96.98 87.22C97.9133 87.22 98.8933 86.4733 99.92 84.98C101.04 83.4867 101.6 82.18 101.6 81.06C101.6 80.0333 101.273 79.3333 100.62 78.96Z" fill="#F8DED3"/>
</svg>
