<svg width="16" height="16" viewBox="0 0 512 512" fill="none" xmlns="http://www.w3.org/2000/svg">
    <g clip-path="url(#clip0_7_3)">
        <g filter="url(#filter0_dddddd_7_3)">
            <circle cx="256" cy="256" r="212" fill="#FCF2CA"/>
        </g>
        <path d="M351.24 272.38C353.147 272.38 354.613 273.333 355.64 275.24C356.813 277 357.4 279.273 357.4 282.06C357.4 285.433 356.887 288.073 355.86 289.98C354.833 291.887 353.22 293.573 351.02 295.04C342.367 300.76 328.58 310.147 309.66 323.2C303.94 353.56 296.533 377.467 287.44 394.92C278.347 412.373 266.833 421.1 252.9 421.1C245.42 421.1 239.333 418.753 234.64 414.06C229.947 409.513 227.6 403.5 227.6 396.02C227.6 389.127 229.14 382.16 232.22 375.12C235.3 368.08 241.02 359.94 249.38 350.7C257.887 341.46 269.84 330.9 285.24 319.02L285.9 314.84C274.313 319.68 262.947 322.1 251.8 322.1C235.373 322.1 220.927 318.947 208.46 312.64C195.993 306.187 186.313 297.093 179.42 285.36C172.527 273.627 169.08 259.987 169.08 244.44C169.08 222.733 173.187 203.593 181.4 187.02C189.613 170.3 200.907 157.393 215.28 148.3C229.8 139.06 246.007 134.44 263.9 134.44C281.06 134.44 293.893 138.473 302.4 146.54C311.053 154.46 315.38 165.02 315.38 178.22C315.38 186.873 313.767 193.84 310.54 199.12C307.46 204.253 302.987 206.82 297.12 206.82C293.16 206.82 289.933 205.867 287.44 203.96C285.093 202.053 283.92 199.413 283.92 196.04C283.92 194.573 284.213 192.08 284.8 188.56C285.68 184.453 286.12 181.227 286.12 178.88C286.12 172.72 284.213 167.953 280.4 164.58C276.733 161.207 270.5 159.52 261.7 159.52C250.993 159.52 241.02 162.6 231.78 168.76C222.687 174.92 215.353 184.16 209.78 196.48C204.207 208.653 201.42 223.32 201.42 240.48C201.42 258.08 206.187 271.72 215.72 281.4C225.4 290.933 239.333 295.7 257.52 295.7C267.64 295.7 278.2 293.427 289.2 288.88L292.28 262.04H269.84C265.733 262.04 262.58 261.087 260.38 259.18C258.18 257.127 257.08 253.827 257.08 249.28C257.08 245.173 258.18 241.947 260.38 239.6C262.58 237.253 265.513 236.08 269.18 236.08H310.32C313.547 236.08 316.187 237.18 318.24 239.38C320.44 241.433 321.32 244.44 320.88 248.4C320.44 253.093 318.973 263.727 316.48 280.3L314.06 297.02C325.793 288.22 336.5 280.593 346.18 274.14C348.087 272.967 349.773 272.38 351.24 272.38ZM255.32 399.76C259.133 399.76 263.313 395.433 267.86 386.78C272.407 378.127 276.66 364.193 280.62 344.98C269.473 354.513 261.407 363.093 256.42 370.72C251.58 378.493 249.16 385.313 249.16 391.18C249.16 396.9 251.213 399.76 255.32 399.76Z" fill="black"/>
    </g>
    <defs>
        <filter id="filter0_dddddd_7_3" x="-36" y="-40" width="584" height="584" filterUnits="userSpaceOnUse" color-interpolation-filters="sRGB">
            <feFlood flood-opacity="0" result="BackgroundImageFix"/>
            <feColorMatrix in="SourceAlpha" type="matrix" values="0 0 0 0 0 0 0 0 0 0 0 0 0 0 0 0 0 0 127 0" result="hardAlpha"/>
            <feOffset dy="-0.11069"/>
            <feGaussianBlur stdDeviation="1.1069"/>
            <feColorMatrix type="matrix" values="0 0 0 0 0 0 0 0 0 0 0 0 0 0 0 0 0 0 0.07 0"/>
            <feBlend mode="normal" in2="BackgroundImageFix" result="effect1_dropShadow_7_3"/>
            <feColorMatrix in="SourceAlpha" type="matrix" values="0 0 0 0 0 0 0 0 0 0 0 0 0 0 0 0 0 0 127 0" result="hardAlpha"/>
            <feOffset dy="-0.266004"/>
            <feGaussianBlur stdDeviation="2.66004"/>
            <feColorMatrix type="matrix" values="0 0 0 0 0 0 0 0 0 0 0 0 0 0 0 0 0 0 0.0503198 0"/>
            <feBlend mode="normal" in2="effect1_dropShadow_7_3" result="effect2_dropShadow_7_3"/>
            <feColorMatrix in="SourceAlpha" type="matrix" values="0 0 0 0 0 0 0 0 0 0 0 0 0 0 0 0 0 0 127 0" result="hardAlpha"/>
            <feOffset dy="-0.500862"/>
            <feGaussianBlur stdDeviation="5.00862"/>
            <feColorMatrix type="matrix" values="0 0 0 0 0 0 0 0 0 0 0 0 0 0 0 0 0 0 0.0417275 0"/>
            <feBlend mode="normal" in2="effect2_dropShadow_7_3" result="effect3_dropShadow_7_3"/>
            <feColorMatrix in="SourceAlpha" type="matrix" values="0 0 0 0 0 0 0 0 0 0 0 0 0 0 0 0 0 0 127 0" result="hardAlpha"/>
            <feOffset dy="-0.893452"/>
            <feGaussianBlur stdDeviation="8.93452"/>
            <feColorMatrix type="matrix" values="0 0 0 0 0 0 0 0 0 0 0 0 0 0 0 0 0 0 0.035 0"/>
            <feBlend mode="normal" in2="effect3_dropShadow_7_3" result="effect4_dropShadow_7_3"/>
            <feColorMatrix in="SourceAlpha" type="matrix" values="0 0 0 0 0 0 0 0 0 0 0 0 0 0 0 0 0 0 127 0" result="hardAlpha"/>
            <feOffset dy="-1.6711"/>
            <feGaussianBlur stdDeviation="16.711"/>
            <feColorMatrix type="matrix" values="0 0 0 0 0 0 0 0 0 0 0 0 0 0 0 0 0 0 0.0282725 0"/>
            <feBlend mode="normal" in2="effect4_dropShadow_7_3" result="effect5_dropShadow_7_3"/>
            <feColorMatrix in="SourceAlpha" type="matrix" values="0 0 0 0 0 0 0 0 0 0 0 0 0 0 0 0 0 0 127 0" result="hardAlpha"/>
            <feOffset dy="-4"/>
            <feGaussianBlur stdDeviation="40"/>
            <feColorMatrix type="matrix" values="0 0 0 0 0 0 0 0 0 0 0 0 0 0 0 0 0 0 0.0196802 0"/>
            <feBlend mode="normal" in2="effect5_dropShadow_7_3" result="effect6_dropShadow_7_3"/>
            <feBlend mode="normal" in="SourceGraphic" in2="effect6_dropShadow_7_3" result="shape"/>
        </filter>
        <clipPath id="clip0_7_3">
            <rect width="512" height="512" fill="white"/>
        </clipPath>
    </defs>
</svg>
