<svg width="160" height="24" viewBox="0 0 160 24" fill="none" xmlns="http://www.w3.org/2000/svg">
    <path fill-rule="evenodd" clip-rule="evenodd" d="M30.3222 19.0192C29.0932 19.0144 28.0592 19.0093 27.5255 19.0048C26.4713 18.9959 23.9703 18.9997 21.9675 19.0134C20.4278 19.024 17.9046 19.0502 15.614 19.0773C14.9734 19.0754 14.3246 19.073 13.6853 19.0702C7.97353 19.0451 7.2409 19.0488 6.95187 19.1048C6.65245 19.1627 6.65132 19.1677 6.93709 19.1695C7.01549 19.1699 7.09592 19.1735 7.1647 19.1788C7.03715 19.1868 6.96333 19.1963 6.90742 19.2078C6.89495 19.2104 6.88302 19.2129 6.87162 19.2152C6.43133 19.1994 6.36779 19.2083 6.43886 19.272C6.45478 19.2863 6.45341 19.3027 6.43778 19.3196C6.39495 19.3253 6.38293 19.3354 6.39218 19.3513C6.34937 19.3732 6.28492 19.3939 6.20581 19.4092C5.91078 19.4663 5.91898 19.4712 6.32148 19.4779L6.34051 19.4782C6.30443 19.4927 6.25906 19.506 6.20644 19.5168C5.91994 19.5757 5.92886 19.5805 6.33217 19.5847C6.57092 19.5872 6.82619 19.5875 6.89943 19.5852C6.96018 19.5834 7.16717 19.6114 7.39354 19.651C7.2199 19.6561 7.27856 19.6639 7.52568 19.6829C7.55238 19.685 7.57854 19.6872 7.60408 19.6895C7.72409 19.7103 7.8512 19.7273 7.98534 19.7405C8.12439 19.7686 8.14932 19.7941 7.97365 19.7954C7.46053 19.7991 8.09413 19.8691 9.28842 19.9407C10.5879 20.0186 10.6605 20.0187 16.9953 19.9471C18.3448 19.9318 19.7325 19.9141 20.9924 19.8965C21.7 19.9023 22.5562 19.9071 23.4318 19.9104C24.0967 19.9169 24.7709 19.9226 25.3979 19.9267C29.0955 19.9511 38.3351 19.9625 37.1041 19.9412C36.0567 19.923 36.6019 19.8853 38.2582 19.8614C39.1121 19.849 39.8426 19.8211 39.8817 19.7992C39.9207 19.7774 40.1799 19.7609 40.4577 19.7626C40.8338 19.765 40.9657 19.7466 40.9739 19.6909C40.977 19.6696 40.9553 19.6528 40.8988 19.6389C40.9706 19.6271 41 19.6088 41 19.5822C41 19.5318 40.8643 19.5071 40.4581 19.4891C40.6361 19.4881 40.676 19.4842 40.5983 19.4741C40.6547 19.465 40.6469 19.447 40.6027 19.4159C40.5877 19.4053 40.5818 19.3934 40.5841 19.3809C40.6468 19.3783 40.6464 19.3742 40.5895 19.3674C40.6098 19.3346 40.6811 19.2998 40.7863 19.2759C41.0552 19.2151 41.0457 19.2103 40.6523 19.2089C40.4368 19.2081 40.2078 19.2094 40.1186 19.2118C40.058 19.198 39.8925 19.1785 39.6433 19.156C39.5853 19.1465 39.5255 19.1362 39.4661 19.1254C39.1295 19.064 38.7422 19.0342 38.3046 19.036C38.2069 19.0364 38.0803 19.0367 37.9288 19.0369C37.0263 18.993 35.9343 18.9968 30.7299 19.0175C30.5943 19.0181 30.4584 19.0186 30.3222 19.0192ZM8.9807 19.2655C8.95907 19.2663 8.93765 19.2672 8.91644 19.268C8.86424 19.2657 8.81234 19.2633 8.76097 19.2609C8.83464 19.2623 8.90801 19.2639 8.9807 19.2655ZM7.6074 19.1621C7.72407 19.1593 7.8604 19.1568 8.02051 19.1546C7.72557 19.1511 7.59875 19.1527 7.6074 19.1621Z" fill="#F6DA68"/>
    <path d="M20.488 14.406C20.6093 14.406 20.7027 14.4667 20.768 14.588C20.8427 14.7 20.88 14.8447 20.88 15.022C20.88 15.2367 20.8473 15.4047 20.782 15.526C20.7167 15.6473 20.614 15.7547 20.474 15.848C19.9233 16.212 19.046 16.8093 17.842 17.64C17.478 19.572 17.0067 21.0933 16.428 22.204C15.8493 23.3147 15.1167 23.87 14.23 23.87C13.754 23.87 13.3667 23.7207 13.068 23.422C12.7693 23.1327 12.62 22.75 12.62 22.274C12.62 21.8353 12.718 21.392 12.914 20.944C13.11 20.496 13.474 19.978 14.006 19.39C14.5473 18.802 15.308 18.13 16.288 17.374L16.33 17.108C15.5927 17.416 14.8693 17.57 14.16 17.57C13.1147 17.57 12.1953 17.3693 11.402 16.968C10.6087 16.5573 9.99267 15.9787 9.554 15.232C9.11533 14.4853 8.896 13.6173 8.896 12.628C8.896 11.2467 9.15733 10.0287 9.68 8.974C10.2027 7.91 10.9213 7.08867 11.836 6.51C12.76 5.922 13.7913 5.628 14.93 5.628C16.022 5.628 16.8387 5.88467 17.38 6.398C17.9307 6.902 18.206 7.574 18.206 8.414C18.206 8.96467 18.1033 9.408 17.898 9.744C17.702 10.0707 17.4173 10.234 17.044 10.234C16.792 10.234 16.5867 10.1733 16.428 10.052C16.2787 9.93067 16.204 9.76267 16.204 9.548C16.204 9.45467 16.2227 9.296 16.26 9.072C16.316 8.81067 16.344 8.60533 16.344 8.456C16.344 8.064 16.2227 7.76067 15.98 7.546C15.7467 7.33133 15.35 7.224 14.79 7.224C14.1087 7.224 13.474 7.42 12.886 7.812C12.3073 8.204 11.8407 8.792 11.486 9.576C11.1313 10.3507 10.954 11.284 10.954 12.376C10.954 13.496 11.2573 14.364 11.864 14.98C12.48 15.5867 13.3667 15.89 14.524 15.89C15.168 15.89 15.84 15.7453 16.54 15.456L16.736 13.748H15.308C15.0467 13.748 14.846 13.6873 14.706 13.566C14.566 13.4353 14.496 13.2253 14.496 12.936C14.496 12.6747 14.566 12.4693 14.706 12.32C14.846 12.1707 15.0327 12.096 15.266 12.096H17.884C18.0893 12.096 18.2573 12.166 18.388 12.306C18.528 12.4367 18.584 12.628 18.556 12.88C18.528 13.1787 18.4347 13.8553 18.276 14.91L18.122 15.974C18.8687 15.414 19.55 14.9287 20.166 14.518C20.2873 14.4433 20.3947 14.406 20.488 14.406ZM14.384 22.512C14.6267 22.512 14.8927 22.2367 15.182 21.686C15.4713 21.1353 15.742 20.2487 15.994 19.026C15.2847 19.6327 14.7713 20.1787 14.454 20.664C14.146 21.1587 13.992 21.5927 13.992 21.966C13.992 22.33 14.1227 22.512 14.384 22.512ZM25.3257 14.378C25.447 14.378 25.5403 14.434 25.6057 14.546C25.6803 14.658 25.7177 14.812 25.7177 15.008C25.7177 15.3813 25.629 15.6707 25.4517 15.876C25.0503 16.3707 24.6117 16.7767 24.1357 17.094C23.669 17.4113 23.137 17.57 22.5397 17.57C21.7183 17.57 21.107 17.1967 20.7057 16.45C20.3137 15.7033 20.1177 14.7373 20.1177 13.552C20.1177 12.4133 20.2623 11.116 20.5517 9.66C20.8503 8.204 21.2843 6.95333 21.8537 5.908C22.4323 4.86267 23.1183 4.34 23.9117 4.34C24.3597 4.34 24.7097 4.55 24.9617 4.97C25.223 5.38067 25.3537 5.97333 25.3537 6.748C25.3537 7.85867 25.0457 9.14667 24.4297 10.612C23.8137 12.0773 22.9783 13.5287 21.9237 14.966C21.989 15.3487 22.0963 15.624 22.2457 15.792C22.395 15.9507 22.591 16.03 22.8337 16.03C23.2163 16.03 23.5523 15.9227 23.8417 15.708C24.131 15.484 24.4997 15.106 24.9477 14.574C25.0597 14.4433 25.1857 14.378 25.3257 14.378ZM23.6037 5.726C23.389 5.726 23.1463 6.11333 22.8757 6.888C22.605 7.66267 22.367 8.624 22.1617 9.772C21.9563 10.92 21.8443 12.0213 21.8257 13.076C22.4883 11.984 23.0157 10.892 23.4077 9.8C23.7997 8.69867 23.9957 7.69533 23.9957 6.79C23.9957 6.08067 23.865 5.726 23.6037 5.726ZM30.8301 14.378C30.9514 14.378 31.0447 14.434 31.1101 14.546C31.1847 14.658 31.2221 14.812 31.2221 15.008C31.2221 15.3813 31.1334 15.6707 30.9561 15.876C30.6107 16.296 30.1207 16.6833 29.4861 17.038C28.8607 17.3927 28.1887 17.57 27.4701 17.57C26.4901 17.57 25.7294 17.304 25.1881 16.772C24.6467 16.24 24.3761 15.512 24.3761 14.588C24.3761 13.944 24.5114 13.3467 24.7821 12.796C25.0527 12.236 25.4261 11.7927 25.9021 11.466C26.3874 11.1393 26.9334 10.976 27.5401 10.976C28.0814 10.976 28.5154 11.1393 28.8421 11.466C29.1687 11.7833 29.3321 12.2173 29.3321 12.768C29.3321 13.412 29.0987 13.9673 28.6321 14.434C28.1747 14.8913 27.3954 15.2553 26.2941 15.526C26.5274 15.9553 26.9707 16.17 27.6241 16.17C28.0441 16.17 28.5201 16.0253 29.0521 15.736C29.5934 15.4373 30.0601 15.05 30.4521 14.574C30.5641 14.4433 30.6901 14.378 30.8301 14.378ZM27.3021 12.348C26.9567 12.348 26.6627 12.5487 26.4201 12.95C26.1867 13.3513 26.0701 13.8367 26.0701 14.406V14.434C26.6207 14.3033 27.0547 14.1073 27.3721 13.846C27.6894 13.5847 27.8481 13.2813 27.8481 12.936C27.8481 12.7587 27.7967 12.6187 27.6941 12.516C27.6007 12.404 27.4701 12.348 27.3021 12.348ZM36.3262 14.378C36.4475 14.378 36.5408 14.434 36.6062 14.546C36.6808 14.658 36.7182 14.812 36.7182 15.008C36.7182 15.3813 36.6295 15.6707 36.4522 15.876C36.1068 16.296 35.6168 16.6833 34.9822 17.038C34.3568 17.3927 33.6848 17.57 32.9662 17.57C31.9862 17.57 31.2255 17.304 30.6842 16.772C30.1428 16.24 29.8722 15.512 29.8722 14.588C29.8722 13.944 30.0075 13.3467 30.2782 12.796C30.5488 12.236 30.9222 11.7927 31.3982 11.466C31.8835 11.1393 32.4295 10.976 33.0362 10.976C33.5775 10.976 34.0115 11.1393 34.3382 11.466C34.6648 11.7833 34.8282 12.2173 34.8282 12.768C34.8282 13.412 34.5948 13.9673 34.1282 14.434C33.6708 14.8913 32.8915 15.2553 31.7902 15.526C32.0235 15.9553 32.4668 16.17 33.1202 16.17C33.5402 16.17 34.0162 16.0253 34.5482 15.736C35.0895 15.4373 35.5562 15.05 35.9482 14.574C36.0602 14.4433 36.1862 14.378 36.3262 14.378ZM32.7982 12.348C32.4528 12.348 32.1588 12.5487 31.9162 12.95C31.6828 13.3513 31.5662 13.8367 31.5662 14.406V14.434C32.1168 14.3033 32.5508 14.1073 32.8682 13.846C33.1855 13.5847 33.3442 13.2813 33.3442 12.936C33.3442 12.7587 33.2928 12.6187 33.1902 12.516C33.0968 12.404 32.9662 12.348 32.7982 12.348ZM41.0275 13.58C41.2889 13.58 41.4195 13.776 41.4195 14.168C41.4195 14.9053 40.8409 15.274 39.6835 15.274C39.4595 15.274 39.1375 15.232 38.7175 15.148C38.8389 15.7267 38.9369 16.3707 39.0115 17.08C39.0955 17.78 39.1375 18.3587 39.1375 18.816C39.1375 19.824 38.9742 20.594 38.6475 21.126C38.3209 21.658 37.8915 21.924 37.3595 21.924C36.6875 21.924 36.2069 21.448 35.9175 20.496C35.6375 19.544 35.4975 18.1067 35.4975 16.184C35.4975 14.392 35.6889 12.5767 36.0715 10.738C36.4635 8.89 36.9955 7.364 37.6675 6.16C38.3489 4.94667 39.0955 4.34 39.9075 4.34C40.3462 4.34 40.6869 4.536 40.9295 4.928C41.1815 5.32 41.3075 5.84733 41.3075 6.51C41.3075 8.70333 39.9962 11.0927 37.3735 13.678C37.2802 14.5927 37.2335 15.3953 37.2335 16.086C37.2335 17.0473 37.2662 18.032 37.3315 19.04C37.3969 20.0573 37.5042 20.566 37.6535 20.566C37.9335 20.566 38.0735 20.0807 38.0735 19.11C38.0735 18.382 38.0222 17.6773 37.9195 16.996C37.8262 16.3147 37.6955 15.596 37.5275 14.84C37.5182 14.7187 37.5555 14.5647 37.6395 14.378C37.7329 14.1913 37.8449 14.028 37.9755 13.888C38.1062 13.748 38.2229 13.678 38.3255 13.678C38.5122 13.678 38.7362 13.6873 38.9975 13.706C39.0815 13.7153 39.1795 13.72 39.2915 13.72C39.6649 13.72 40.0802 13.6873 40.5375 13.622C40.6122 13.6127 40.6915 13.6033 40.7755 13.594C40.8595 13.5847 40.9435 13.58 41.0275 13.58ZM39.6135 5.726C39.4455 5.726 39.2355 6.01067 38.9835 6.58C38.7409 7.14933 38.4982 7.90533 38.2555 8.848C38.0129 9.78133 37.8029 10.7707 37.6255 11.816C38.3722 10.9667 38.9462 10.0847 39.3475 9.17C39.7489 8.246 39.9542 7.38267 39.9635 6.58C39.9635 6.01067 39.8469 5.726 39.6135 5.726Z" fill="white"/>
    <path d="M50.05 16V9H53C53.7467 9 54.4033 9.14667 54.97 9.44C55.5433 9.73333 55.9867 10.1433 56.3 10.67C56.62 11.1967 56.78 11.8067 56.78 12.5C56.78 13.1933 56.62 13.8033 56.3 14.33C55.9867 14.8567 55.5433 15.2667 54.97 15.56C54.4033 15.8533 53.7467 16 53 16H50.05ZM51.05 15.13H52.94C53.52 15.13 54.02 15.02 54.44 14.8C54.8667 14.58 55.1967 14.2733 55.43 13.88C55.6633 13.48 55.78 13.02 55.78 12.5C55.78 11.9733 55.6633 11.5133 55.43 11.12C55.1967 10.7267 54.8667 10.42 54.44 10.2C54.02 9.98 53.52 9.87 52.94 9.87H51.05V15.13ZM60.5317 16.06C59.9651 16.06 59.4651 15.9433 59.0317 15.71C58.6051 15.4767 58.2717 15.1567 58.0317 14.75C57.7984 14.3433 57.6817 13.8767 57.6817 13.35C57.6817 12.8233 57.7951 12.3567 58.0217 11.95C58.2551 11.5433 58.5717 11.2267 58.9717 11C59.3784 10.7667 59.8351 10.65 60.3417 10.65C60.8551 10.65 61.3084 10.7633 61.7017 10.99C62.0951 11.2167 62.4017 11.5367 62.6217 11.95C62.8484 12.3567 62.9617 12.8333 62.9617 13.38C62.9617 13.42 62.9584 13.4667 62.9517 13.52C62.9517 13.5733 62.9484 13.6233 62.9417 13.67H58.4317V12.98H62.4417L62.0517 13.22C62.0584 12.88 61.9884 12.5767 61.8417 12.31C61.6951 12.0433 61.4917 11.8367 61.2317 11.69C60.9784 11.5367 60.6817 11.46 60.3417 11.46C60.0084 11.46 59.7117 11.5367 59.4517 11.69C59.1917 11.8367 58.9884 12.0467 58.8417 12.32C58.6951 12.5867 58.6217 12.8933 58.6217 13.24V13.4C58.6217 13.7533 58.7017 14.07 58.8617 14.35C59.0284 14.6233 59.2584 14.8367 59.5517 14.99C59.8451 15.1433 60.1817 15.22 60.5617 15.22C60.8751 15.22 61.1584 15.1667 61.4117 15.06C61.6717 14.9533 61.8984 14.7933 62.0917 14.58L62.6217 15.2C62.3817 15.48 62.0817 15.6933 61.7217 15.84C61.3684 15.9867 60.9717 16.06 60.5317 16.06ZM65.5871 16L63.2671 10.7H64.2671L66.3271 15.5H65.8471L67.9471 10.7H68.8871L66.5671 16H65.5871ZM71.9966 16.06C71.4299 16.06 70.9299 15.9433 70.4966 15.71C70.0699 15.4767 69.7366 15.1567 69.4966 14.75C69.2632 14.3433 69.1466 13.8767 69.1466 13.35C69.1466 12.8233 69.2599 12.3567 69.4866 11.95C69.7199 11.5433 70.0366 11.2267 70.4366 11C70.8432 10.7667 71.2999 10.65 71.8066 10.65C72.3199 10.65 72.7732 10.7633 73.1666 10.99C73.5599 11.2167 73.8666 11.5367 74.0866 11.95C74.3132 12.3567 74.4266 12.8333 74.4266 13.38C74.4266 13.42 74.4232 13.4667 74.4166 13.52C74.4166 13.5733 74.4132 13.6233 74.4066 13.67H69.8966V12.98H73.9066L73.5166 13.22C73.5232 12.88 73.4532 12.5767 73.3066 12.31C73.1599 12.0433 72.9566 11.8367 72.6966 11.69C72.4432 11.5367 72.1466 11.46 71.8066 11.46C71.4732 11.46 71.1766 11.5367 70.9166 11.69C70.6566 11.8367 70.4532 12.0467 70.3066 12.32C70.1599 12.5867 70.0866 12.8933 70.0866 13.24V13.4C70.0866 13.7533 70.1666 14.07 70.3266 14.35C70.4932 14.6233 70.7232 14.8367 71.0166 14.99C71.3099 15.1433 71.6466 15.22 72.0266 15.22C72.3399 15.22 72.6232 15.1667 72.8766 15.06C73.1366 14.9533 73.3632 14.7933 73.5566 14.58L74.0866 15.2C73.8466 15.48 73.5466 15.6933 73.1866 15.84C72.8332 15.9867 72.4366 16.06 71.9966 16.06ZM75.7596 16V8.58H76.7196V16H75.7596ZM80.8226 16.06C80.2892 16.06 79.8159 15.9433 79.4026 15.71C78.9892 15.4767 78.6626 15.1567 78.4226 14.75C78.1826 14.3367 78.0626 13.87 78.0626 13.35C78.0626 12.8233 78.1826 12.3567 78.4226 11.95C78.6626 11.5433 78.9892 11.2267 79.4026 11C79.8159 10.7667 80.2892 10.65 80.8226 10.65C81.3492 10.65 81.8192 10.7667 82.2326 11C82.6526 11.2267 82.9792 11.5433 83.2126 11.95C83.4526 12.35 83.5726 12.8167 83.5726 13.35C83.5726 13.8767 83.4526 14.3433 83.2126 14.75C82.9792 15.1567 82.6526 15.4767 82.2326 15.71C81.8192 15.9433 81.3492 16.06 80.8226 16.06ZM80.8226 15.22C81.1626 15.22 81.4659 15.1433 81.7326 14.99C82.0059 14.8367 82.2192 14.62 82.3726 14.34C82.5259 14.0533 82.6026 13.7233 82.6026 13.35C82.6026 12.97 82.5259 12.6433 82.3726 12.37C82.2192 12.09 82.0059 11.8733 81.7326 11.72C81.4659 11.5667 81.1626 11.49 80.8226 11.49C80.4826 11.49 80.1792 11.5667 79.9126 11.72C79.6459 11.8733 79.4326 12.09 79.2726 12.37C79.1126 12.6433 79.0326 12.97 79.0326 13.35C79.0326 13.7233 79.1126 14.0533 79.2726 14.34C79.4326 14.62 79.6459 14.8367 79.9126 14.99C80.1792 15.1433 80.4826 15.22 80.8226 15.22ZM87.7102 16.06C87.2702 16.06 86.8669 15.96 86.5002 15.76C86.1402 15.5533 85.8502 15.25 85.6302 14.85C85.4169 14.45 85.3102 13.95 85.3102 13.35C85.3102 12.75 85.4136 12.25 85.6202 11.85C85.8336 11.45 86.1202 11.15 86.4802 10.95C86.8469 10.75 87.2569 10.65 87.7102 10.65C88.2302 10.65 88.6902 10.7633 89.0902 10.99C89.4902 11.2167 89.8069 11.5333 90.0402 11.94C90.2736 12.34 90.3902 12.81 90.3902 13.35C90.3902 13.89 90.2736 14.3633 90.0402 14.77C89.8069 15.1767 89.4902 15.4933 89.0902 15.72C88.6902 15.9467 88.2302 16.06 87.7102 16.06ZM84.9002 17.94V10.7H85.8202V12.13L85.7602 13.36L85.8602 14.59V17.94H84.9002ZM87.6302 15.22C87.9702 15.22 88.2736 15.1433 88.5402 14.99C88.8136 14.8367 89.0269 14.62 89.1802 14.34C89.3402 14.0533 89.4202 13.7233 89.4202 13.35C89.4202 12.97 89.3402 12.6433 89.1802 12.37C89.0269 12.09 88.8136 11.8733 88.5402 11.72C88.2736 11.5667 87.9702 11.49 87.6302 11.49C87.2969 11.49 86.9936 11.5667 86.7202 11.72C86.4536 11.8733 86.2402 12.09 86.0802 12.37C85.9269 12.6433 85.8502 12.97 85.8502 13.35C85.8502 13.7233 85.9269 14.0533 86.0802 14.34C86.2402 14.62 86.4536 14.8367 86.7202 14.99C86.9936 15.1433 87.2969 15.22 87.6302 15.22ZM94.0766 16.06C93.51 16.06 93.01 15.9433 92.5766 15.71C92.15 15.4767 91.8166 15.1567 91.5766 14.75C91.3433 14.3433 91.2266 13.8767 91.2266 13.35C91.2266 12.8233 91.34 12.3567 91.5666 11.95C91.8 11.5433 92.1166 11.2267 92.5166 11C92.9233 10.7667 93.38 10.65 93.8866 10.65C94.4 10.65 94.8533 10.7633 95.2466 10.99C95.64 11.2167 95.9466 11.5367 96.1666 11.95C96.3933 12.3567 96.5066 12.8333 96.5066 13.38C96.5066 13.42 96.5033 13.4667 96.4966 13.52C96.4966 13.5733 96.4933 13.6233 96.4866 13.67H91.9766V12.98H95.9866L95.5966 13.22C95.6033 12.88 95.5333 12.5767 95.3866 12.31C95.24 12.0433 95.0366 11.8367 94.7766 11.69C94.5233 11.5367 94.2266 11.46 93.8866 11.46C93.5533 11.46 93.2566 11.5367 92.9966 11.69C92.7366 11.8367 92.5333 12.0467 92.3866 12.32C92.24 12.5867 92.1666 12.8933 92.1666 13.24V13.4C92.1666 13.7533 92.2466 14.07 92.4066 14.35C92.5733 14.6233 92.8033 14.8367 93.0966 14.99C93.39 15.1433 93.7266 15.22 94.1066 15.22C94.42 15.22 94.7033 15.1667 94.9566 15.06C95.2166 14.9533 95.4433 14.7933 95.6366 14.58L96.1666 15.2C95.9266 15.48 95.6266 15.6933 95.2666 15.84C94.9133 15.9867 94.5166 16.06 94.0766 16.06ZM97.8397 16V10.7H98.7597V12.14L98.6697 11.78C98.8164 11.4133 99.063 11.1333 99.4097 10.94C99.7564 10.7467 100.183 10.65 100.69 10.65V11.58C100.65 11.5733 100.61 11.57 100.57 11.57C100.536 11.57 100.503 11.57 100.47 11.57C99.9564 11.57 99.5497 11.7233 99.2497 12.03C98.9497 12.3367 98.7997 12.78 98.7997 13.36V16H97.8397ZM107.927 16.08C107.387 16.08 106.89 15.9933 106.437 15.82C105.983 15.64 105.59 15.39 105.257 15.07C104.923 14.7433 104.663 14.3633 104.477 13.93C104.29 13.4967 104.197 13.02 104.197 12.5C104.197 11.98 104.29 11.5033 104.477 11.07C104.663 10.6367 104.923 10.26 105.257 9.94C105.597 9.61333 105.993 9.36333 106.447 9.19C106.9 9.01 107.4 8.92 107.947 8.92C108.5 8.92 109.007 9.01 109.467 9.19C109.927 9.37 110.317 9.64 110.637 10L110.017 10.62C109.73 10.34 109.417 10.1367 109.077 10.01C108.743 9.87667 108.38 9.81 107.987 9.81C107.587 9.81 107.213 9.87667 106.867 10.01C106.527 10.1433 106.23 10.33 105.977 10.57C105.73 10.81 105.537 11.0967 105.397 11.43C105.263 11.7567 105.197 12.1133 105.197 12.5C105.197 12.88 105.263 13.2367 105.397 13.57C105.537 13.8967 105.73 14.1833 105.977 14.43C106.23 14.67 106.527 14.8567 106.867 14.99C107.207 15.1233 107.577 15.19 107.977 15.19C108.35 15.19 108.707 15.1333 109.047 15.02C109.393 14.9 109.713 14.7033 110.007 14.43L110.577 15.19C110.23 15.4833 109.823 15.7067 109.357 15.86C108.897 16.0067 108.42 16.08 107.927 16.08ZM109.617 15.06V12.46H110.577V15.19L109.617 15.06ZM114.581 16.06C114.128 16.06 113.728 15.9767 113.381 15.81C113.041 15.6433 112.775 15.39 112.581 15.05C112.395 14.7033 112.301 14.27 112.301 13.75V10.7H113.261V13.64C113.261 14.16 113.385 14.55 113.631 14.81C113.885 15.07 114.238 15.2 114.691 15.2C115.025 15.2 115.315 15.1333 115.561 15C115.808 14.86 115.998 14.66 116.131 14.4C116.265 14.1333 116.331 13.8133 116.331 13.44V10.7H117.291V16H116.381V14.57L116.531 14.95C116.358 15.3033 116.098 15.5767 115.751 15.77C115.405 15.9633 115.015 16.06 114.581 16.06ZM119.119 16V10.7H120.079V16H119.119ZM119.599 9.68C119.412 9.68 119.256 9.62 119.129 9.5C119.009 9.38 118.949 9.23333 118.949 9.06C118.949 8.88 119.009 8.73 119.129 8.61C119.256 8.49 119.412 8.43 119.599 8.43C119.786 8.43 119.939 8.49 120.059 8.61C120.186 8.72333 120.249 8.86667 120.249 9.04C120.249 9.22 120.189 9.37333 120.069 9.5C119.949 9.62 119.792 9.68 119.599 9.68ZM124.102 16.06C123.589 16.06 123.129 15.9467 122.722 15.72C122.322 15.4933 122.005 15.1767 121.772 14.77C121.539 14.3633 121.422 13.89 121.422 13.35C121.422 12.81 121.539 12.34 121.772 11.94C122.005 11.5333 122.322 11.2167 122.722 10.99C123.129 10.7633 123.589 10.65 124.102 10.65C124.549 10.65 124.952 10.75 125.312 10.95C125.672 11.15 125.959 11.45 126.172 11.85C126.392 12.25 126.502 12.75 126.502 13.35C126.502 13.95 126.395 14.45 126.182 14.85C125.975 15.25 125.692 15.5533 125.332 15.76C124.972 15.96 124.562 16.06 124.102 16.06ZM124.182 15.22C124.515 15.22 124.815 15.1433 125.082 14.99C125.355 14.8367 125.569 14.62 125.722 14.34C125.882 14.0533 125.962 13.7233 125.962 13.35C125.962 12.97 125.882 12.6433 125.722 12.37C125.569 12.09 125.355 11.8733 125.082 11.72C124.815 11.5667 124.515 11.49 124.182 11.49C123.842 11.49 123.539 11.5667 123.272 11.72C123.005 11.8733 122.792 12.09 122.632 12.37C122.472 12.6433 122.392 12.97 122.392 13.35C122.392 13.7233 122.472 14.0533 122.632 14.34C122.792 14.62 123.005 14.8367 123.272 14.99C123.539 15.1433 123.842 15.22 124.182 15.22ZM125.992 16V14.57L126.052 13.34L125.952 12.11V8.58H126.912V16H125.992ZM131.088 16.06C130.522 16.06 130.022 15.9433 129.588 15.71C129.162 15.4767 128.828 15.1567 128.588 14.75C128.355 14.3433 128.238 13.8767 128.238 13.35C128.238 12.8233 128.352 12.3567 128.578 11.95C128.812 11.5433 129.128 11.2267 129.528 11C129.935 10.7667 130.392 10.65 130.898 10.65C131.412 10.65 131.865 10.7633 132.258 10.99C132.652 11.2167 132.958 11.5367 133.178 11.95C133.405 12.3567 133.518 12.8333 133.518 13.38C133.518 13.42 133.515 13.4667 133.508 13.52C133.508 13.5733 133.505 13.6233 133.498 13.67H128.988V12.98H132.998L132.608 13.22C132.615 12.88 132.545 12.5767 132.398 12.31C132.252 12.0433 132.048 11.8367 131.788 11.69C131.535 11.5367 131.238 11.46 130.898 11.46C130.565 11.46 130.268 11.5367 130.008 11.69C129.748 11.8367 129.545 12.0467 129.398 12.32C129.252 12.5867 129.178 12.8933 129.178 13.24V13.4C129.178 13.7533 129.258 14.07 129.418 14.35C129.585 14.6233 129.815 14.8367 130.108 14.99C130.402 15.1433 130.738 15.22 131.118 15.22C131.432 15.22 131.715 15.1667 131.968 15.06C132.228 14.9533 132.455 14.7933 132.648 14.58L133.178 15.2C132.938 15.48 132.638 15.6933 132.278 15.84C131.925 15.9867 131.528 16.06 131.088 16.06Z" fill="#B1B1B1"/>
</svg>
