<svg width="160" height="24" viewBox="0 0 160 24" fill="none" xmlns="http://www.w3.org/2000/svg">
    <path fill-rule="evenodd" clip-rule="evenodd" d="M31.7121 11.1252C30.4128 11.0726 29.3198 11.0167 28.7556 10.967C27.6411 10.8688 24.9971 10.911 22.8799 11.0619C21.2523 11.1775 18.5849 11.4665 16.1633 11.7638C15.4862 11.7432 14.8003 11.7174 14.1244 11.6864C8.0863 11.4098 7.31181 11.4512 7.00626 12.0665C6.68974 12.7043 6.68854 12.7586 6.99064 12.7781C7.07352 12.7835 7.15854 12.8221 7.23126 12.8812C7.09642 12.969 7.01838 13.0739 6.95927 13.2003C6.94609 13.2286 6.93348 13.2557 6.92143 13.2817C6.45598 13.1079 6.38881 13.2059 6.46393 13.9065C6.48077 14.0634 6.47932 14.2441 6.46279 14.4291C6.41752 14.4919 6.40481 14.6035 6.41459 14.7779C6.36933 15.0194 6.3012 15.247 6.21757 15.4154C5.90568 16.0435 5.91435 16.0971 6.33985 16.1712L6.35996 16.1747C6.32182 16.3335 6.27386 16.4797 6.21824 16.5987C5.91536 17.2468 5.92479 17.2998 6.35115 17.3463C6.60354 17.3738 6.8734 17.3762 6.95083 17.3516C7.01504 17.3312 7.23387 17.6396 7.47317 18.0756C7.2896 18.1312 7.35162 18.2173 7.61287 18.4261C7.64109 18.4487 7.66875 18.4728 7.69575 18.4982C7.82261 18.7275 7.95698 18.9146 8.09878 19.0596C8.24579 19.3684 8.27214 19.6491 8.08643 19.663C7.54398 19.7037 8.21379 20.4743 9.47633 21.262C10.85 22.1191 10.9268 22.1197 17.6236 21.3319C19.0502 21.1641 20.5172 20.9697 21.8491 20.7759C22.5971 20.8391 23.5023 20.8926 24.4279 20.9284C25.1308 21.0004 25.8435 21.0628 26.5064 21.1081C30.4152 21.3763 40.1828 21.502 38.8815 21.2673C37.7743 21.0676 38.3506 20.6529 40.1015 20.3894C41.0042 20.2536 41.7765 19.9458 41.8178 19.7055C41.859 19.4652 42.1331 19.2841 42.4267 19.3031C42.8243 19.3288 42.9637 19.1272 42.9724 18.514C42.9757 18.2802 42.9527 18.095 42.8931 17.9422C42.9689 17.812 43 17.611 43 17.3181C43 16.7637 42.8566 16.4921 42.4271 16.2947C42.6153 16.2831 42.6575 16.2402 42.5754 16.1293C42.6349 16.0294 42.6267 15.8308 42.58 15.489C42.5641 15.3728 42.5579 15.2416 42.5603 15.104C42.6267 15.0751 42.6262 15.0299 42.5661 14.9558C42.5875 14.5947 42.6628 14.2115 42.7741 13.9494C43.0584 13.2796 43.0483 13.2273 42.6324 13.212C42.4046 13.2036 42.1625 13.2179 42.0683 13.244C42.0041 13.0917 41.8292 12.878 41.5657 12.63C41.5045 12.5256 41.4412 12.4122 41.3784 12.2929C41.0226 11.618 40.6132 11.2903 40.1506 11.3104C40.0473 11.3148 39.9135 11.3179 39.7533 11.3196C38.7992 10.8371 37.6448 10.8788 32.143 11.1067C31.9997 11.1126 31.856 11.1188 31.7121 11.1252ZM9.15102 13.8347C9.12816 13.8437 9.10551 13.8527 9.08309 13.8618C9.02791 13.8369 8.97305 13.8108 8.91874 13.7836C8.99662 13.7994 9.07419 13.8164 9.15102 13.8347ZM7.69925 12.6969C7.82259 12.6664 7.96671 12.6391 8.13596 12.6144C7.82418 12.5761 7.6901 12.5935 7.69925 12.6969Z" fill="#FFF1B8"/>
    <path d="M21.488 13.9919C21.6093 13.9919 21.7027 14.0526 21.768 14.1739C21.8427 14.2859 21.88 14.4306 21.88 14.6079C21.88 14.8226 21.8473 14.9906 21.782 15.1119C21.7167 15.2333 21.614 15.3406 21.474 15.4339C20.9233 15.7979 20.046 16.3953 18.842 17.2259C18.478 19.1579 18.0067 20.6793 17.428 21.7899C16.8493 22.9006 16.1167 23.4559 15.23 23.4559C14.754 23.4559 14.3667 23.3066 14.068 23.0079C13.7693 22.7186 13.62 22.3359 13.62 21.8599C13.62 21.4213 13.718 20.9779 13.914 20.5299C14.11 20.0819 14.474 19.5639 15.006 18.9759C15.5473 18.3879 16.308 17.7159 17.288 16.9599L17.33 16.6939C16.5927 17.0019 15.8693 17.1559 15.16 17.1559C14.1147 17.1559 13.1953 16.9553 12.402 16.5539C11.6087 16.1433 10.9927 15.5646 10.554 14.8179C10.1153 14.0713 9.896 13.2033 9.896 12.2139C9.896 10.8326 10.1573 9.6146 10.68 8.55994C11.2027 7.49594 11.9213 6.6746 12.836 6.09594C13.76 5.50794 14.7913 5.21394 15.93 5.21394C17.022 5.21394 17.8387 5.4706 18.38 5.98394C18.9307 6.48794 19.206 7.15994 19.206 7.99994C19.206 8.5506 19.1033 8.99394 18.898 9.32994C18.702 9.6566 18.4173 9.81994 18.044 9.81994C17.792 9.81994 17.5867 9.75927 17.428 9.63794C17.2787 9.5166 17.204 9.3486 17.204 9.13394C17.204 9.0406 17.2227 8.88194 17.26 8.65794C17.316 8.3966 17.344 8.19127 17.344 8.04194C17.344 7.64994 17.2227 7.3466 16.98 7.13194C16.7467 6.91727 16.35 6.80994 15.79 6.80994C15.1087 6.80994 14.474 7.00594 13.886 7.39794C13.3073 7.78994 12.8407 8.37794 12.486 9.16194C12.1313 9.9366 11.954 10.8699 11.954 11.9619C11.954 13.0819 12.2573 13.9499 12.864 14.5659C13.48 15.1726 14.3667 15.4759 15.524 15.4759C16.168 15.4759 16.84 15.3313 17.54 15.0419L17.736 13.3339H16.308C16.0467 13.3339 15.846 13.2733 15.706 13.1519C15.566 13.0213 15.496 12.8113 15.496 12.5219C15.496 12.2606 15.566 12.0553 15.706 11.9059C15.846 11.7566 16.0327 11.6819 16.266 11.6819H18.884C19.0893 11.6819 19.2573 11.7519 19.388 11.8919C19.528 12.0226 19.584 12.2139 19.556 12.4659C19.528 12.7646 19.4347 13.4413 19.276 14.4959L19.122 15.5599C19.8687 14.9999 20.55 14.5146 21.166 14.1039C21.2873 14.0293 21.3947 13.9919 21.488 13.9919ZM15.384 22.0979C15.6267 22.0979 15.8927 21.8226 16.182 21.2719C16.4713 20.7213 16.742 19.8346 16.994 18.6119C16.2847 19.2186 15.7713 19.7646 15.454 20.2499C15.146 20.7446 14.992 21.1786 14.992 21.5519C14.992 21.9159 15.1227 22.0979 15.384 22.0979ZM26.3257 13.9639C26.447 13.9639 26.5403 14.0199 26.6057 14.1319C26.6803 14.2439 26.7177 14.3979 26.7177 14.5939C26.7177 14.9673 26.629 15.2566 26.4517 15.4619C26.0503 15.9566 25.6117 16.3626 25.1357 16.6799C24.669 16.9973 24.137 17.1559 23.5397 17.1559C22.7183 17.1559 22.107 16.7826 21.7057 16.0359C21.3137 15.2893 21.1177 14.3233 21.1177 13.1379C21.1177 11.9993 21.2623 10.7019 21.5517 9.24594C21.8503 7.78994 22.2843 6.53927 22.8537 5.49394C23.4323 4.4486 24.1183 3.92594 24.9117 3.92594C25.3597 3.92594 25.7097 4.13594 25.9617 4.55594C26.223 4.9666 26.3537 5.55927 26.3537 6.33394C26.3537 7.4446 26.0457 8.7326 25.4297 10.1979C24.8137 11.6633 23.9783 13.1146 22.9237 14.5519C22.989 14.9346 23.0963 15.2099 23.2457 15.3779C23.395 15.5366 23.591 15.6159 23.8337 15.6159C24.2163 15.6159 24.5523 15.5086 24.8417 15.2939C25.131 15.0699 25.4997 14.6919 25.9477 14.1599C26.0597 14.0293 26.1857 13.9639 26.3257 13.9639ZM24.6037 5.31194C24.389 5.31194 24.1463 5.69927 23.8757 6.47394C23.605 7.2486 23.367 8.20994 23.1617 9.35794C22.9563 10.5059 22.8443 11.6073 22.8257 12.6619C23.4883 11.5699 24.0157 10.4779 24.4077 9.38594C24.7997 8.2846 24.9957 7.28127 24.9957 6.37594C24.9957 5.6666 24.865 5.31194 24.6037 5.31194ZM31.8301 13.9639C31.9514 13.9639 32.0447 14.0199 32.1101 14.1319C32.1847 14.2439 32.2221 14.3979 32.2221 14.5939C32.2221 14.9673 32.1334 15.2566 31.9561 15.4619C31.6107 15.8819 31.1207 16.2693 30.4861 16.6239C29.8607 16.9786 29.1887 17.1559 28.4701 17.1559C27.4901 17.1559 26.7294 16.8899 26.1881 16.3579C25.6467 15.8259 25.3761 15.0979 25.3761 14.1739C25.3761 13.5299 25.5114 12.9326 25.7821 12.3819C26.0527 11.8219 26.4261 11.3786 26.9021 11.0519C27.3874 10.7253 27.9334 10.5619 28.5401 10.5619C29.0814 10.5619 29.5154 10.7253 29.8421 11.0519C30.1687 11.3693 30.3321 11.8033 30.3321 12.3539C30.3321 12.9979 30.0987 13.5533 29.6321 14.0199C29.1747 14.4773 28.3954 14.8413 27.2941 15.1119C27.5274 15.5413 27.9707 15.7559 28.6241 15.7559C29.0441 15.7559 29.5201 15.6113 30.0521 15.3219C30.5934 15.0233 31.0601 14.6359 31.4521 14.1599C31.5641 14.0293 31.6901 13.9639 31.8301 13.9639ZM28.3021 11.9339C27.9567 11.9339 27.6627 12.1346 27.4201 12.5359C27.1867 12.9373 27.0701 13.4226 27.0701 13.9919V14.0199C27.6207 13.8893 28.0547 13.6933 28.3721 13.4319C28.6894 13.1706 28.8481 12.8673 28.8481 12.5219C28.8481 12.3446 28.7967 12.2046 28.6941 12.1019C28.6007 11.9899 28.4701 11.9339 28.3021 11.9339ZM37.3262 13.9639C37.4475 13.9639 37.5408 14.0199 37.6062 14.1319C37.6808 14.2439 37.7182 14.3979 37.7182 14.5939C37.7182 14.9673 37.6295 15.2566 37.4522 15.4619C37.1068 15.8819 36.6168 16.2693 35.9822 16.6239C35.3568 16.9786 34.6848 17.1559 33.9662 17.1559C32.9862 17.1559 32.2255 16.8899 31.6842 16.3579C31.1428 15.8259 30.8722 15.0979 30.8722 14.1739C30.8722 13.5299 31.0075 12.9326 31.2782 12.3819C31.5488 11.8219 31.9222 11.3786 32.3982 11.0519C32.8835 10.7253 33.4295 10.5619 34.0362 10.5619C34.5775 10.5619 35.0115 10.7253 35.3382 11.0519C35.6648 11.3693 35.8282 11.8033 35.8282 12.3539C35.8282 12.9979 35.5948 13.5533 35.1282 14.0199C34.6708 14.4773 33.8915 14.8413 32.7902 15.1119C33.0235 15.5413 33.4668 15.7559 34.1202 15.7559C34.5402 15.7559 35.0162 15.6113 35.5482 15.3219C36.0895 15.0233 36.5562 14.6359 36.9482 14.1599C37.0602 14.0293 37.1862 13.9639 37.3262 13.9639ZM33.7982 11.9339C33.4528 11.9339 33.1588 12.1346 32.9162 12.5359C32.6828 12.9373 32.5662 13.4226 32.5662 13.9919V14.0199C33.1168 13.8893 33.5508 13.6933 33.8682 13.4319C34.1855 13.1706 34.3442 12.8673 34.3442 12.5219C34.3442 12.3446 34.2928 12.2046 34.1902 12.1019C34.0968 11.9899 33.9662 11.9339 33.7982 11.9339ZM42.0275 13.1659C42.2889 13.1659 42.4195 13.3619 42.4195 13.7539C42.4195 14.4913 41.8409 14.8599 40.6835 14.8599C40.4595 14.8599 40.1375 14.8179 39.7175 14.7339C39.8389 15.3126 39.9369 15.9566 40.0115 16.6659C40.0955 17.3659 40.1375 17.9446 40.1375 18.4019C40.1375 19.4099 39.9742 20.1799 39.6475 20.7119C39.3209 21.2439 38.8915 21.5099 38.3595 21.5099C37.6875 21.5099 37.2069 21.0339 36.9175 20.0819C36.6375 19.1299 36.4975 17.6926 36.4975 15.7699C36.4975 13.9779 36.6889 12.1626 37.0715 10.3239C37.4635 8.47594 37.9955 6.94994 38.6675 5.74594C39.3489 4.5326 40.0955 3.92594 40.9075 3.92594C41.3462 3.92594 41.6869 4.12194 41.9295 4.51394C42.1815 4.90594 42.3075 5.43327 42.3075 6.09594C42.3075 8.28927 40.9962 10.6786 38.3735 13.2639C38.2802 14.1786 38.2335 14.9813 38.2335 15.6719C38.2335 16.6333 38.2662 17.6179 38.3315 18.6259C38.3969 19.6433 38.5042 20.1519 38.6535 20.1519C38.9335 20.1519 39.0735 19.6666 39.0735 18.6959C39.0735 17.9679 39.0222 17.2633 38.9195 16.5819C38.8262 15.9006 38.6955 15.1819 38.5275 14.4259C38.5182 14.3046 38.5555 14.1506 38.6395 13.9639C38.7329 13.7773 38.8449 13.6139 38.9755 13.4739C39.1062 13.3339 39.2229 13.2639 39.3255 13.2639C39.5122 13.2639 39.7362 13.2733 39.9975 13.2919C40.0815 13.3013 40.1795 13.3059 40.2915 13.3059C40.6649 13.3059 41.0802 13.2733 41.5375 13.2079C41.6122 13.1986 41.6915 13.1893 41.7755 13.1799C41.8595 13.1706 41.9435 13.1659 42.0275 13.1659ZM40.6135 5.31194C40.4455 5.31194 40.2355 5.5966 39.9835 6.16594C39.7409 6.73527 39.4982 7.49127 39.2555 8.43394C39.0129 9.36727 38.8029 10.3566 38.6255 11.4019C39.3722 10.5526 39.9462 9.6706 40.3475 8.75594C40.7489 7.83194 40.9542 6.9686 40.9635 6.16594C40.9635 5.5966 40.8469 5.31194 40.6135 5.31194Z" fill="black"/>
    <path d="M52.05 16V9H55C55.7467 9 56.4033 9.14667 56.97 9.44C57.5433 9.73333 57.9867 10.1433 58.3 10.67C58.62 11.1967 58.78 11.8067 58.78 12.5C58.78 13.1933 58.62 13.8033 58.3 14.33C57.9867 14.8567 57.5433 15.2667 56.97 15.56C56.4033 15.8533 55.7467 16 55 16H52.05ZM53.05 15.13H54.94C55.52 15.13 56.02 15.02 56.44 14.8C56.8667 14.58 57.1967 14.2733 57.43 13.88C57.6633 13.48 57.78 13.02 57.78 12.5C57.78 11.9733 57.6633 11.5133 57.43 11.12C57.1967 10.7267 56.8667 10.42 56.44 10.2C56.02 9.98 55.52 9.87 54.94 9.87H53.05V15.13ZM62.5317 16.06C61.9651 16.06 61.4651 15.9433 61.0317 15.71C60.6051 15.4767 60.2717 15.1567 60.0317 14.75C59.7984 14.3433 59.6817 13.8767 59.6817 13.35C59.6817 12.8233 59.7951 12.3567 60.0217 11.95C60.2551 11.5433 60.5717 11.2267 60.9717 11C61.3784 10.7667 61.8351 10.65 62.3417 10.65C62.8551 10.65 63.3084 10.7633 63.7017 10.99C64.0951 11.2167 64.4017 11.5367 64.6217 11.95C64.8484 12.3567 64.9617 12.8333 64.9617 13.38C64.9617 13.42 64.9584 13.4667 64.9517 13.52C64.9517 13.5733 64.9484 13.6233 64.9417 13.67H60.4317V12.98H64.4417L64.0517 13.22C64.0584 12.88 63.9884 12.5767 63.8417 12.31C63.6951 12.0433 63.4917 11.8367 63.2317 11.69C62.9784 11.5367 62.6817 11.46 62.3417 11.46C62.0084 11.46 61.7117 11.5367 61.4517 11.69C61.1917 11.8367 60.9884 12.0467 60.8417 12.32C60.6951 12.5867 60.6217 12.8933 60.6217 13.24V13.4C60.6217 13.7533 60.7017 14.07 60.8617 14.35C61.0284 14.6233 61.2584 14.8367 61.5517 14.99C61.8451 15.1433 62.1817 15.22 62.5617 15.22C62.8751 15.22 63.1584 15.1667 63.4117 15.06C63.6717 14.9533 63.8984 14.7933 64.0917 14.58L64.6217 15.2C64.3817 15.48 64.0817 15.6933 63.7217 15.84C63.3684 15.9867 62.9717 16.06 62.5317 16.06ZM67.5871 16L65.2671 10.7H66.2671L68.3271 15.5H67.8471L69.9471 10.7H70.8871L68.5671 16H67.5871ZM73.9966 16.06C73.4299 16.06 72.9299 15.9433 72.4966 15.71C72.0699 15.4767 71.7366 15.1567 71.4966 14.75C71.2632 14.3433 71.1466 13.8767 71.1466 13.35C71.1466 12.8233 71.2599 12.3567 71.4866 11.95C71.7199 11.5433 72.0366 11.2267 72.4366 11C72.8432 10.7667 73.2999 10.65 73.8066 10.65C74.3199 10.65 74.7732 10.7633 75.1666 10.99C75.5599 11.2167 75.8666 11.5367 76.0866 11.95C76.3132 12.3567 76.4266 12.8333 76.4266 13.38C76.4266 13.42 76.4232 13.4667 76.4166 13.52C76.4166 13.5733 76.4132 13.6233 76.4066 13.67H71.8966V12.98H75.9066L75.5166 13.22C75.5232 12.88 75.4532 12.5767 75.3066 12.31C75.1599 12.0433 74.9566 11.8367 74.6966 11.69C74.4432 11.5367 74.1466 11.46 73.8066 11.46C73.4732 11.46 73.1766 11.5367 72.9166 11.69C72.6566 11.8367 72.4532 12.0467 72.3066 12.32C72.1599 12.5867 72.0866 12.8933 72.0866 13.24V13.4C72.0866 13.7533 72.1666 14.07 72.3266 14.35C72.4932 14.6233 72.7232 14.8367 73.0166 14.99C73.3099 15.1433 73.6466 15.22 74.0266 15.22C74.3399 15.22 74.6232 15.1667 74.8766 15.06C75.1366 14.9533 75.3632 14.7933 75.5566 14.58L76.0866 15.2C75.8466 15.48 75.5466 15.6933 75.1866 15.84C74.8332 15.9867 74.4366 16.06 73.9966 16.06ZM77.7596 16V8.58H78.7196V16H77.7596ZM82.8226 16.06C82.2892 16.06 81.8159 15.9433 81.4026 15.71C80.9892 15.4767 80.6626 15.1567 80.4226 14.75C80.1826 14.3367 80.0626 13.87 80.0626 13.35C80.0626 12.8233 80.1826 12.3567 80.4226 11.95C80.6626 11.5433 80.9892 11.2267 81.4026 11C81.8159 10.7667 82.2892 10.65 82.8226 10.65C83.3492 10.65 83.8192 10.7667 84.2326 11C84.6526 11.2267 84.9792 11.5433 85.2126 11.95C85.4526 12.35 85.5726 12.8167 85.5726 13.35C85.5726 13.8767 85.4526 14.3433 85.2126 14.75C84.9792 15.1567 84.6526 15.4767 84.2326 15.71C83.8192 15.9433 83.3492 16.06 82.8226 16.06ZM82.8226 15.22C83.1626 15.22 83.4659 15.1433 83.7326 14.99C84.0059 14.8367 84.2192 14.62 84.3726 14.34C84.5259 14.0533 84.6026 13.7233 84.6026 13.35C84.6026 12.97 84.5259 12.6433 84.3726 12.37C84.2192 12.09 84.0059 11.8733 83.7326 11.72C83.4659 11.5667 83.1626 11.49 82.8226 11.49C82.4826 11.49 82.1792 11.5667 81.9126 11.72C81.6459 11.8733 81.4326 12.09 81.2726 12.37C81.1126 12.6433 81.0326 12.97 81.0326 13.35C81.0326 13.7233 81.1126 14.0533 81.2726 14.34C81.4326 14.62 81.6459 14.8367 81.9126 14.99C82.1792 15.1433 82.4826 15.22 82.8226 15.22ZM89.7102 16.06C89.2702 16.06 88.8669 15.96 88.5002 15.76C88.1402 15.5533 87.8502 15.25 87.6302 14.85C87.4169 14.45 87.3102 13.95 87.3102 13.35C87.3102 12.75 87.4136 12.25 87.6202 11.85C87.8336 11.45 88.1202 11.15 88.4802 10.95C88.8469 10.75 89.2569 10.65 89.7102 10.65C90.2302 10.65 90.6902 10.7633 91.0902 10.99C91.4902 11.2167 91.8069 11.5333 92.0402 11.94C92.2736 12.34 92.3902 12.81 92.3902 13.35C92.3902 13.89 92.2736 14.3633 92.0402 14.77C91.8069 15.1767 91.4902 15.4933 91.0902 15.72C90.6902 15.9467 90.2302 16.06 89.7102 16.06ZM86.9002 17.94V10.7H87.8202V12.13L87.7602 13.36L87.8602 14.59V17.94H86.9002ZM89.6302 15.22C89.9702 15.22 90.2736 15.1433 90.5402 14.99C90.8136 14.8367 91.0269 14.62 91.1802 14.34C91.3402 14.0533 91.4202 13.7233 91.4202 13.35C91.4202 12.97 91.3402 12.6433 91.1802 12.37C91.0269 12.09 90.8136 11.8733 90.5402 11.72C90.2736 11.5667 89.9702 11.49 89.6302 11.49C89.2969 11.49 88.9936 11.5667 88.7202 11.72C88.4536 11.8733 88.2402 12.09 88.0802 12.37C87.9269 12.6433 87.8502 12.97 87.8502 13.35C87.8502 13.7233 87.9269 14.0533 88.0802 14.34C88.2402 14.62 88.4536 14.8367 88.7202 14.99C88.9936 15.1433 89.2969 15.22 89.6302 15.22ZM96.0766 16.06C95.51 16.06 95.01 15.9433 94.5766 15.71C94.15 15.4767 93.8166 15.1567 93.5766 14.75C93.3433 14.3433 93.2266 13.8767 93.2266 13.35C93.2266 12.8233 93.34 12.3567 93.5666 11.95C93.8 11.5433 94.1166 11.2267 94.5166 11C94.9233 10.7667 95.38 10.65 95.8866 10.65C96.4 10.65 96.8533 10.7633 97.2466 10.99C97.64 11.2167 97.9466 11.5367 98.1666 11.95C98.3933 12.3567 98.5066 12.8333 98.5066 13.38C98.5066 13.42 98.5033 13.4667 98.4966 13.52C98.4966 13.5733 98.4933 13.6233 98.4866 13.67H93.9766V12.98H97.9866L97.5966 13.22C97.6033 12.88 97.5333 12.5767 97.3866 12.31C97.24 12.0433 97.0366 11.8367 96.7766 11.69C96.5233 11.5367 96.2266 11.46 95.8866 11.46C95.5533 11.46 95.2566 11.5367 94.9966 11.69C94.7366 11.8367 94.5333 12.0467 94.3866 12.32C94.24 12.5867 94.1666 12.8933 94.1666 13.24V13.4C94.1666 13.7533 94.2466 14.07 94.4066 14.35C94.5733 14.6233 94.8033 14.8367 95.0966 14.99C95.39 15.1433 95.7266 15.22 96.1066 15.22C96.42 15.22 96.7033 15.1667 96.9566 15.06C97.2166 14.9533 97.4433 14.7933 97.6366 14.58L98.1666 15.2C97.9266 15.48 97.6266 15.6933 97.2666 15.84C96.9133 15.9867 96.5166 16.06 96.0766 16.06ZM99.8397 16V10.7H100.76V12.14L100.67 11.78C100.816 11.4133 101.063 11.1333 101.41 10.94C101.756 10.7467 102.183 10.65 102.69 10.65V11.58C102.65 11.5733 102.61 11.57 102.57 11.57C102.536 11.57 102.503 11.57 102.47 11.57C101.956 11.57 101.55 11.7233 101.25 12.03C100.95 12.3367 100.8 12.78 100.8 13.36V16H99.8397ZM109.927 16.08C109.387 16.08 108.89 15.9933 108.437 15.82C107.983 15.64 107.59 15.39 107.257 15.07C106.923 14.7433 106.663 14.3633 106.477 13.93C106.29 13.4967 106.197 13.02 106.197 12.5C106.197 11.98 106.29 11.5033 106.477 11.07C106.663 10.6367 106.923 10.26 107.257 9.94C107.597 9.61333 107.993 9.36333 108.447 9.19C108.9 9.01 109.4 8.92 109.947 8.92C110.5 8.92 111.007 9.01 111.467 9.19C111.927 9.37 112.317 9.64 112.637 10L112.017 10.62C111.73 10.34 111.417 10.1367 111.077 10.01C110.743 9.87667 110.38 9.81 109.987 9.81C109.587 9.81 109.213 9.87667 108.867 10.01C108.527 10.1433 108.23 10.33 107.977 10.57C107.73 10.81 107.537 11.0967 107.397 11.43C107.263 11.7567 107.197 12.1133 107.197 12.5C107.197 12.88 107.263 13.2367 107.397 13.57C107.537 13.8967 107.73 14.1833 107.977 14.43C108.23 14.67 108.527 14.8567 108.867 14.99C109.207 15.1233 109.577 15.19 109.977 15.19C110.35 15.19 110.707 15.1333 111.047 15.02C111.393 14.9 111.713 14.7033 112.007 14.43L112.577 15.19C112.23 15.4833 111.823 15.7067 111.357 15.86C110.897 16.0067 110.42 16.08 109.927 16.08ZM111.617 15.06V12.46H112.577V15.19L111.617 15.06ZM116.581 16.06C116.128 16.06 115.728 15.9767 115.381 15.81C115.041 15.6433 114.775 15.39 114.581 15.05C114.395 14.7033 114.301 14.27 114.301 13.75V10.7H115.261V13.64C115.261 14.16 115.385 14.55 115.631 14.81C115.885 15.07 116.238 15.2 116.691 15.2C117.025 15.2 117.315 15.1333 117.561 15C117.808 14.86 117.998 14.66 118.131 14.4C118.265 14.1333 118.331 13.8133 118.331 13.44V10.7H119.291V16H118.381V14.57L118.531 14.95C118.358 15.3033 118.098 15.5767 117.751 15.77C117.405 15.9633 117.015 16.06 116.581 16.06ZM121.119 16V10.7H122.079V16H121.119ZM121.599 9.68C121.412 9.68 121.256 9.62 121.129 9.5C121.009 9.38 120.949 9.23333 120.949 9.06C120.949 8.88 121.009 8.73 121.129 8.61C121.256 8.49 121.412 8.43 121.599 8.43C121.786 8.43 121.939 8.49 122.059 8.61C122.186 8.72333 122.249 8.86667 122.249 9.04C122.249 9.22 122.189 9.37333 122.069 9.5C121.949 9.62 121.792 9.68 121.599 9.68ZM126.102 16.06C125.589 16.06 125.129 15.9467 124.722 15.72C124.322 15.4933 124.005 15.1767 123.772 14.77C123.539 14.3633 123.422 13.89 123.422 13.35C123.422 12.81 123.539 12.34 123.772 11.94C124.005 11.5333 124.322 11.2167 124.722 10.99C125.129 10.7633 125.589 10.65 126.102 10.65C126.549 10.65 126.952 10.75 127.312 10.95C127.672 11.15 127.959 11.45 128.172 11.85C128.392 12.25 128.502 12.75 128.502 13.35C128.502 13.95 128.395 14.45 128.182 14.85C127.975 15.25 127.692 15.5533 127.332 15.76C126.972 15.96 126.562 16.06 126.102 16.06ZM126.182 15.22C126.515 15.22 126.815 15.1433 127.082 14.99C127.355 14.8367 127.569 14.62 127.722 14.34C127.882 14.0533 127.962 13.7233 127.962 13.35C127.962 12.97 127.882 12.6433 127.722 12.37C127.569 12.09 127.355 11.8733 127.082 11.72C126.815 11.5667 126.515 11.49 126.182 11.49C125.842 11.49 125.539 11.5667 125.272 11.72C125.005 11.8733 124.792 12.09 124.632 12.37C124.472 12.6433 124.392 12.97 124.392 13.35C124.392 13.7233 124.472 14.0533 124.632 14.34C124.792 14.62 125.005 14.8367 125.272 14.99C125.539 15.1433 125.842 15.22 126.182 15.22ZM127.992 16V14.57L128.052 13.34L127.952 12.11V8.58H128.912V16H127.992ZM133.088 16.06C132.522 16.06 132.022 15.9433 131.588 15.71C131.162 15.4767 130.828 15.1567 130.588 14.75C130.355 14.3433 130.238 13.8767 130.238 13.35C130.238 12.8233 130.352 12.3567 130.578 11.95C130.812 11.5433 131.128 11.2267 131.528 11C131.935 10.7667 132.392 10.65 132.898 10.65C133.412 10.65 133.865 10.7633 134.258 10.99C134.652 11.2167 134.958 11.5367 135.178 11.95C135.405 12.3567 135.518 12.8333 135.518 13.38C135.518 13.42 135.515 13.4667 135.508 13.52C135.508 13.5733 135.505 13.6233 135.498 13.67H130.988V12.98H134.998L134.608 13.22C134.615 12.88 134.545 12.5767 134.398 12.31C134.252 12.0433 134.048 11.8367 133.788 11.69C133.535 11.5367 133.238 11.46 132.898 11.46C132.565 11.46 132.268 11.5367 132.008 11.69C131.748 11.8367 131.545 12.0467 131.398 12.32C131.252 12.5867 131.178 12.8933 131.178 13.24V13.4C131.178 13.7533 131.258 14.07 131.418 14.35C131.585 14.6233 131.815 14.8367 132.108 14.99C132.402 15.1433 132.738 15.22 133.118 15.22C133.432 15.22 133.715 15.1667 133.968 15.06C134.228 14.9533 134.455 14.7933 134.648 14.58L135.178 15.2C134.938 15.48 134.638 15.6933 134.278 15.84C133.925 15.9867 133.528 16.06 133.088 16.06Z" fill="#999999"/>
</svg>
