<svg width="700" height="320" viewBox="0 0 700 320" fill="none" xmlns="http://www.w3.org/2000/svg">
    <g clip-path="url(#clip0_107_118)">
        <mask id="mask0_107_118" style="mask-type:luminance" maskUnits="userSpaceOnUse" x="0" y="0" width="700" height="320">
            <path d="M684 0H16C7.16344 0 0 7.16344 0 16V304C0 312.837 7.16344 320 16 320H684C692.837 320 700 312.837 700 304V16C700 7.16344 692.837 0 684 0Z" fill="white"/>
        </mask>
        <g mask="url(#mask0_107_118)">
            <g opacity="0.8" filter="url(#filter0_f_107_118)">
                <path d="M660 100C748.366 100 820 28.3656 820 -60C820 -148.366 748.366 -220 660 -220C571.634 -220 500 -148.366 500 -60C500 28.3656 571.634 100 660 100Z" fill="#F6DA67" fill-opacity="0.4"/>
            </g>
            <g opacity="0.8" filter="url(#filter1_f_107_118)">
                <path d="M20 373C108.366 373 180 301.366 180 213C180 124.634 108.366 53 20 53C-68.3656 53 -140 124.634 -140 213C-140 301.366 -68.3656 373 20 373Z" fill="#F6DA67" fill-opacity="0.33"/>
            </g>
            <g opacity="0.8" filter="url(#filter2_f_107_118)">
            </g>
            <g opacity="0.8" filter="url(#filter3_f_107_118)">
                <path d="M20 573C108.366 573 180 501.366 180 413C180 324.634 108.366 253 20 253C-68.3656 253 -140 324.634 -140 413C-140 501.366 -68.3656 573 20 573Z" fill="#F6DA68"/>
            </g>
            <path opacity="0.2" d="M0 50H700" stroke="url(#paint0_radial_107_118)" stroke-dasharray="4 4"/>
            <path opacity="0.1" d="M0 82H700" stroke="url(#paint1_radial_107_118)" stroke-dasharray="4 4"/>
            <path opacity="0.2" d="M239 0V320" stroke="url(#paint2_radial_107_118)" stroke-dasharray="4 4"/>
            <path opacity="0.1" d="M271 0V320" stroke="url(#paint3_radial_107_118)" stroke-dasharray="4 4"/>
            <path opacity="0.2" d="M461 0V320" stroke="url(#paint4_radial_107_118)" stroke-dasharray="4 4"/>
            <path opacity="0.1" d="M429 0V320" stroke="url(#paint5_radial_107_118)" stroke-dasharray="4 4"/>
            <path opacity="0.2" d="M0 271H700" stroke="url(#paint6_radial_107_118)" stroke-dasharray="4 4"/>
            <path opacity="0.1" d="M0 239H700" stroke="url(#paint7_radial_107_118)" stroke-dasharray="4 4"/>
            <g style="mix-blend-mode:overlay" opacity="0.1">
                <path d="M0 160H700" stroke="url(#paint8_linear_107_118)"/>
            </g>
            <g style="mix-blend-mode:overlay" opacity="0.2">
                <path d="M511 -1L189 321" stroke="url(#paint9_linear_107_118)"/>
            </g>
            <g style="mix-blend-mode:overlay" opacity="0.2">
                <path d="M511 321L189 -1" stroke="url(#paint10_linear_107_118)"/>
            </g>
            <g style="mix-blend-mode:overlay" opacity="0.1">
                <path d="M350 271C411.304 271 461 221.304 461 160C461 98.6964 411.304 49 350 49C288.696 49 239 98.6964 239 160C239 221.304 288.696 271 350 271Z" stroke="white"/>
            </g>
            <g style="mix-blend-mode:overlay" opacity="0.1">
                <path d="M350 239C393.63 239 429 203.63 429 160C429 116.37 393.63 81 350 81C306.37 81 271 116.37 271 160C271 203.63 306.37 239 350 239Z" stroke="white"/>
            </g>
        </g>
        <path d="M416.8 164.85C418.1 164.85 419.1 165.5 419.8 166.8C420.6 168 421 169.55 421 171.45C421 173.75 420.65 175.55 419.95 176.85C419.25 178.15 418.15 179.3 416.65 180.3C410.75 184.2 401.35 190.6 388.45 199.5C384.55 220.2 379.5 236.5 373.3 248.4C367.1 260.3 359.25 266.25 349.75 266.25C344.65 266.25 340.5 264.65 337.3 261.45C334.1 258.35 332.5 254.25 332.5 249.15C332.5 244.45 333.55 239.7 335.65 234.9C337.75 230.1 341.65 224.55 347.35 218.25C353.15 211.95 361.3 204.75 371.8 196.65L372.25 193.8C364.35 197.1 356.6 198.75 349 198.75C337.8 198.75 327.95 196.6 319.45 192.3C310.95 187.9 304.35 181.7 299.65 173.7C294.95 165.7 292.6 156.4 292.6 145.8C292.6 131 295.4 117.95 301 106.65C306.6 95.25 314.3 86.45 324.1 80.25C334 73.95 345.05 70.8 357.25 70.8C368.95 70.8 377.7 73.55 383.5 79.05C389.4 84.45 392.35 91.65 392.35 100.65C392.35 106.55 391.25 111.3 389.05 114.9C386.95 118.4 383.9 120.15 379.9 120.15C377.2 120.15 375 119.5 373.3 118.2C371.7 116.9 370.9 115.1 370.9 112.8C370.9 111.8 371.1 110.1 371.5 107.7C372.1 104.9 372.4 102.7 372.4 101.1C372.4 96.9 371.1 93.65 368.5 91.35C366 89.05 361.75 87.9 355.75 87.9C348.45 87.9 341.65 90 335.35 94.2C329.15 98.4 324.15 104.7 320.35 113.1C316.55 121.4 314.65 131.4 314.65 143.1C314.65 155.1 317.9 164.4 324.4 171C331 177.5 340.5 180.75 352.9 180.75C359.8 180.75 367 179.2 374.5 176.1L376.6 157.8H361.3C358.5 157.8 356.35 157.15 354.85 155.85C353.35 154.45 352.6 152.2 352.6 149.1C352.6 146.3 353.35 144.1 354.85 142.5C356.35 140.9 358.35 140.1 360.85 140.1H388.9C391.1 140.1 392.9 140.85 394.3 142.35C395.8 143.75 396.4 145.8 396.1 148.5C395.8 151.7 394.8 158.95 393.1 170.25L391.45 181.65C399.45 175.65 406.75 170.45 413.35 166.05C414.65 165.25 415.8 164.85 416.8 164.85ZM351.4 251.7C354 251.7 356.85 248.75 359.95 242.85C363.05 236.95 365.95 227.45 368.65 214.35C361.05 220.85 355.55 226.7 352.15 231.9C348.85 237.2 347.2 241.85 347.2 245.85C347.2 249.75 348.6 251.7 351.4 251.7Z" fill="white"/>
    </g>
    <defs>
        <filter id="filter0_f_107_118" x="260" y="-460" width="800" height="800" filterUnits="userSpaceOnUse" color-interpolation-filters="sRGB">
            <feFlood flood-opacity="0" result="BackgroundImageFix"/>
            <feBlend mode="normal" in="SourceGraphic" in2="BackgroundImageFix" result="shape"/>
            <feGaussianBlur stdDeviation="120" result="effect1_foregroundBlur_107_118"/>
        </filter>
        <filter id="filter1_f_107_118" x="-380" y="-187" width="800" height="800" filterUnits="userSpaceOnUse" color-interpolation-filters="sRGB">
            <feFlood flood-opacity="0" result="BackgroundImageFix"/>
            <feBlend mode="normal" in="SourceGraphic" in2="BackgroundImageFix" result="shape"/>
            <feGaussianBlur stdDeviation="120" result="effect1_foregroundBlur_107_118"/>
        </filter>
        <filter id="filter2_f_107_118" x="260" y="80" width="800" height="800" filterUnits="userSpaceOnUse" color-interpolation-filters="sRGB">
            <feFlood flood-opacity="0" result="BackgroundImageFix"/>
            <feBlend mode="normal" in="SourceGraphic" in2="BackgroundImageFix" result="shape"/>
            <feGaussianBlur stdDeviation="120" result="effect1_foregroundBlur_107_118"/>
        </filter>
        <filter id="filter3_f_107_118" x="-380" y="13" width="800" height="800" filterUnits="userSpaceOnUse" color-interpolation-filters="sRGB">
            <feFlood flood-opacity="0" result="BackgroundImageFix"/>
            <feBlend mode="normal" in="SourceGraphic" in2="BackgroundImageFix" result="shape"/>
            <feGaussianBlur stdDeviation="120" result="effect1_foregroundBlur_107_118"/>
        </filter>
        <radialGradient id="paint0_radial_107_118" cx="0" cy="0" r="1" gradientUnits="userSpaceOnUse" gradientTransform="translate(-nan -nan) rotate(-nan) scale(-nan -nan)">
            <stop offset="0.348958" stop-color="#84FFD3"/>
            <stop offset="0.880208" stop-color="#18E299" stop-opacity="0"/>
        </radialGradient>
        <radialGradient id="paint1_radial_107_118" cx="0" cy="0" r="1" gradientUnits="userSpaceOnUse" gradientTransform="translate(-nan -nan) rotate(-nan) scale(-nan -nan)">
            <stop offset="0.348958" stop-color="#84FFD3"/>
            <stop offset="0.880208" stop-color="#18E299" stop-opacity="0"/>
        </radialGradient>
        <radialGradient id="paint2_radial_107_118" cx="0" cy="0" r="1" gradientUnits="userSpaceOnUse" gradientTransform="translate(-nan -nan) rotate(-nan) scale(-nan -nan)">
            <stop offset="0.348958" stop-color="#84FFD3"/>
            <stop offset="0.880208" stop-color="#18E299" stop-opacity="0"/>
        </radialGradient>
        <radialGradient id="paint3_radial_107_118" cx="0" cy="0" r="1" gradientUnits="userSpaceOnUse" gradientTransform="translate(-nan -nan) rotate(-nan) scale(-nan -nan)">
            <stop offset="0.348958" stop-color="#84FFD3"/>
            <stop offset="0.880208" stop-color="#18E299" stop-opacity="0"/>
        </radialGradient>
        <radialGradient id="paint4_radial_107_118" cx="0" cy="0" r="1" gradientUnits="userSpaceOnUse" gradientTransform="translate(-nan -nan) rotate(-nan) scale(-nan -nan)">
            <stop offset="0.348958" stop-color="#84FFD3"/>
            <stop offset="0.880208" stop-color="#18E299" stop-opacity="0"/>
        </radialGradient>
        <radialGradient id="paint5_radial_107_118" cx="0" cy="0" r="1" gradientUnits="userSpaceOnUse" gradientTransform="translate(-nan -nan) rotate(-nan) scale(-nan -nan)">
            <stop offset="0.348958" stop-color="#84FFD3"/>
            <stop offset="0.880208" stop-color="#18E299" stop-opacity="0"/>
        </radialGradient>
        <radialGradient id="paint6_radial_107_118" cx="0" cy="0" r="1" gradientUnits="userSpaceOnUse" gradientTransform="translate(-nan -nan) rotate(-nan) scale(-nan -nan)">
            <stop offset="0.348958" stop-color="#84FFD3"/>
            <stop offset="0.880208" stop-color="#18E299" stop-opacity="0"/>
        </radialGradient>
        <radialGradient id="paint7_radial_107_118" cx="0" cy="0" r="1" gradientUnits="userSpaceOnUse" gradientTransform="translate(-nan -nan) rotate(-nan) scale(-nan -nan)">
            <stop offset="0.348958" stop-color="#84FFD3"/>
            <stop offset="0.880208" stop-color="#18E299" stop-opacity="0"/>
        </radialGradient>
        <linearGradient id="paint8_linear_107_118" x1="-nan" y1="-nan" x2="-nan" y2="-nan" gradientUnits="userSpaceOnUse">
            <stop stop-color="white" stop-opacity="0.1"/>
            <stop offset="0.5" stop-color="white"/>
            <stop offset="1" stop-color="white" stop-opacity="0.1"/>
        </linearGradient>
        <linearGradient id="paint9_linear_107_118" x1="511" y1="-1" x2="189" y2="321" gradientUnits="userSpaceOnUse">
            <stop stop-color="white" stop-opacity="0.1"/>
            <stop offset="0.5" stop-color="white"/>
            <stop offset="1" stop-color="white" stop-opacity="0.1"/>
        </linearGradient>
        <linearGradient id="paint10_linear_107_118" x1="511" y1="321" x2="189" y2="-1" gradientUnits="userSpaceOnUse">
            <stop stop-color="white" stop-opacity="0.1"/>
            <stop offset="0.5" stop-color="white"/>
            <stop offset="1" stop-color="white" stop-opacity="0.1"/>
        </linearGradient>
        <clipPath id="clip0_107_118">
            <rect width="700" height="320" fill="white"/>
        </clipPath>
    </defs>
</svg>
